<?xml version="1.0" encoding="UTF-8"?>
<svg id="Capa_1" data-name="Capa 1" xmlns="http://www.w3.org/2000/svg" viewBox="0 0 1000.77 279.52">
  <defs>
    <style>
      .cls-1 {
        fill: #85a3d6;
      }

      .cls-2 {
        fill: #467cb2;
      }

      .cls-3 {
        fill: #8dafe2;
      }

      .cls-4 {
        fill: #8a9cb2;
      }

      .cls-5 {
        fill: #819ec9;
      }

      .cls-6 {
        fill: #a9d0ff;
      }

      .cls-7 {
        fill: #99bdf2;
      }

      .cls-8 {
        fill: #99b1c9;
      }
    </style>
  </defs>
  <path class="cls-7" d="m157.91,279.43H0s42.99-108.33,115.8-126.33c42.62-10.54,52.64-91.24,108.78-87.73,56.15,3.51,142.12,214.06,142.12,214.06h-208.8Z"/>
  <path class="cls-1" d="m344.91,230.17c-29.2-62.46-81.78-162.39-120.32-164.8,0,0,21.06,84.68-23.69,79.41-44.74-5.26-52.64,21.05-31.58,50.01,21.06,28.95-92.12,84.64-92.12,84.64h236.03l31.67-49.26Z"/>
  <path class="cls-6" d="m593.05,279.43H157.91s27.2-100.43,179.85-150.44C435.58,96.94,459.7,1.78,514.1.03c54.39-1.75,121.07,81.13,166.69,149.56,45.62,68.43,78.08,129.42,78.08,129.42l-165.81.42Z"/>
  <path class="cls-3" d="m533.83,2.82c-13.33,11.24-17.69,41.97-8.53,62.32,25.16,55.88,50.51,110.61-23.25,106.97-53.84-2.66-78.26,94.97-68.21,107.32h159.21l165.81-.42s-32.46-60.99-78.08-129.42c-40.23-60.35-96.83-131.9-146.95-146.77Z"/>
  <path class="cls-7" d="m157.91,279.43s44.94-29.81,68.19-25.16c23.25,4.65,55.81,24.8,86.81,18.6,31-6.2,32.56-38.76,57.36-35.66s46.51,42.21,46.51,42.21H157.91Z"/>
  <path class="cls-6" d="m1000.12,279.43c-1.75-5.26-150.89-121.07-219.32-122.82-68.43-1.75-187.74,122.82-187.74,122.82h407.06Z"/>
  <path class="cls-3" d="m781.45,156.39c-.62-.02-1.25,0-1.88,0-9.16,7.61-15.63,16.65-14.79,26.77,2.63,31.58,42.11,21.06,81.59,44.74,39.48,23.69-5.26,51.31-5.26,51.31h159.67l-15.15-13.23c-39.91-31.6-148.63-108.16-204.18-109.59Z"/>
  <path class="cls-5" d="m865.44,179.88c-16.05-1.46-22.57,80.59,0,80.59s17.73-78.98,0-80.59Z"/>
  <path class="cls-4" d="m906.64,196.95c-13.78-1.72-32.98,62.49,0,62.49s13.89-60.76,0-62.49Z"/>
  <path class="cls-5" d="m364.64,204.68c-12.66-1.15-17.79,63.54,0,63.54s13.98-62.27,0-63.54Z"/>
  <path class="cls-8" d="m401.52,227.94c-8.83-1.1-21.14,40.06,0,40.06s8.9-38.94,0-40.06Z"/>
  <path class="cls-4" d="m448.36,212.43c10.99-1,15.45,55.19,0,55.19s-12.14-54.09,0-55.19Z"/>
  <path class="cls-6" d="m480.33,240.25c6.56-.82,15.7,29.75,0,29.75s-6.61-28.92,0-29.75Z"/>
  <path class="cls-4" d="m749.04,279.46s1.67-15.89-2.51-15.89-5.85,15.89-5.85,15.89h8.36Z"/>
  <rect class="cls-2" x="363.56" y="243.94" width="2.07" height="35.49"/>
  <rect class="cls-2" x="400.77" y="256.34" width="1.03" height="23.09"/>
  <rect class="cls-2" x="478.28" y="256.34" width="1.03" height="23.09"/>
  <rect class="cls-2" x="447.27" y="252.2" width="2.07" height="27.22"/>
  <rect class="cls-2" x="904.08" y="229.47" width="3.1" height="49.61"/>
  <rect class="cls-2" x="863.77" y="209.83" width="2.85" height="69.24"/>
  <path class="cls-5" d="m830.8,126.83c9.28-.84,13.04,46.58,0,46.58s-10.25-45.65,0-46.58Z"/>
  <path class="cls-4" d="m806.99,136.69c7.96-1,19.06,36.12,0,36.12s-8.03-35.11,0-36.12Z"/>
  <rect class="cls-2" x="806.68" y="158.04" width="1.79" height="28.67" transform="translate(1615.15 344.75) rotate(180)"/>
  <rect class="cls-2" x="829.65" y="144.14" width="2.12" height="40.02" transform="translate(1661.41 328.29) rotate(180)"/>
  <path class="cls-4" d="m804.86,279.43c-.04-.36-1.22-10.41-4.65-9.27-2.72.9-4.72,6.72-5.48,9.27h10.12Z"/>
  <path class="cls-8" d="m833.9,279.43c-.47-4.52-2.04-16.24-5.79-16.24-4.6,0-8.05,15.87-8.13,16.24h13.92Z"/>
  <path class="cls-5" d="m783.94,279.43c.04-.37,2.27-22.06-3.49-22.06s-8.1,21.68-8.14,22.06h11.63Z"/>
  <path class="cls-5" d="m730.53,279.34c-.05-.36-1.4-10.39-4.81-9.18-2.7.95-4.6,6.81-5.31,9.36l10.12-.18Z"/>
  <path class="cls-4" d="m434.06,279.43c-1.23-6.85-4.37-22.06-7.97-22.06-3.95,0-8.43,16.92-9.7,22.06h17.68Z"/>
  <path class="cls-8" d="m342.05,279.43c-1.21-7.2-4.28-22.06-8.98-22.06-5.03,0-9.88,16.01-11.54,22.06h20.52Z"/>
  <path class="cls-4" d="m302.02,279.43c-.69-4.48-2.59-13.94-6.16-12.75-3.76,1.25-6.51,9.61-7.42,12.75h13.58Z"/>
  <path class="cls-8" d="m274.92,279.43c.4-9.01.66-29.81-5.41-29.81s-10.45,21.92-11.71,29.81h17.12Z"/>
</svg>