<svg width="21" height="15" viewBox="0 0 21 15" fill="none" xmlns="http://www.w3.org/2000/svg">
    <rect width="21" height="7.5" fill="#003893"/>
    <rect y="7.5" width="21" height="7.5" fill="#EF3340"/>
    <path d="M10.5 4.5C10.5 6.98528 8.48528 9 6 9C3.51472 9 1.5 6.98528 1.5 4.5C1.5 2.01472 3.51472 0 6 0C8.48528 0 10.5 2.01472 10.5 4.5Z" fill="white"/>
    <path fill-rule="evenodd" clip-rule="evenodd" d="M4.5 6C4.5 6.82843 5.17157 7.5 6 7.5C6.82843 7.5 7.5 6.82843 7.5 6C7.5 5.17157 6.82843 4.5 6 4.5C5.17157 4.5 4.5 5.17157 4.5 6Z" fill="#FF0000"/>
    <path d="M19 0.5H2C1.17157 0.5 0.5 1.17157 0.5 2V13C0.5 13.8284 1.17157 14.5 2 14.5H19C19.8284 14.5 20.5 13.8284 20.5 13V2C20.5 1.17157 19.8284 0.5 19 0.5Z" stroke="black" stroke-opacity="0.1"/>
</svg>
