<svg width="21" height="15" viewBox="0 0 21 15" fill="none" xmlns="http://www.w3.org/2000/svg">
    <rect x="0" y="0" width="10.5" height="15" fill="#C8102E"/>
    <rect x="10.5" y="0" width="10.5" height="15" fill="#162875"/>
    <path d="M10.5 7.5C10.5 7.5 12 9 12 9C12 9 13.5 7.5 13.5 7.5C13.5 7.5 12 6 12 6C12 6 10.5 7.5 10.5 7.5Z" fill="#FFD500"/>
    <path d="M19 0.5H2C1.17157 0.5 0.5 1.17157 0.5 2V13C0.5 13.8284 1.17157 14.5 2 14.5H19C19.8284 14.5 20.5 13.8284 20.5 13V2C20.5 1.17157 19.8284 0.5 19 0.5Z" stroke="black" stroke-opacity="0.1"/>
</svg>
